<?xml version="1.0" standalone="no"?>
<!DOCTYPE svg PUBLIC "-//W3C//DTD SVG 20010904//EN"
 "http://www.w3.org/TR/2001/REC-SVG-20010904/DTD/svg10.dtd">
<svg version="1.0" xmlns="http://www.w3.org/2000/svg"
 width="700.000000pt" height="700.000000pt" viewBox="0 0 700.000000 700.000000"
 preserveAspectRatio="xMidYMid meet">
<metadata>
Created by potrace 1.11, written by Peter Selinger 2001-2013
</metadata>
<g transform="translate(0.000000,700.000000) scale(0.100000,-0.100000)"
fill="#000000" stroke="none">
<path d="M928 6775 c-2 -1 -34 -5 -73 -9 -287 -26 -508 -197 -639 -494 -80
-182 -122 -477 -90 -641 39 -208 162 -407 401 -652 l75 -76 -67 -99 c-95 -141
-206 -340 -275 -493 -70 -154 -165 -429 -186 -534 -2 -10 -5 -26 -8 -35 -11
-37 -44 -240 -54 -327 -9 -89 -8 -449 1 -535 4 -36 9 -83 12 -104 6 -50 12
-88 25 -156 7 -30 14 -68 17 -85 3 -16 20 -83 39 -147 100 -348 264 -666 483
-937 77 -96 245 -271 337 -352 389 -342 899 -598 1469 -740 155 -38 382 -81
495 -94 30 -3 66 -8 80 -10 24 -4 84 -9 245 -21 93 -7 529 -7 580 0 22 3 78 8
125 11 92 6 405 49 473 65 23 5 85 19 137 31 815 180 1523 618 1957 1209 207
282 348 587 432 931 29 121 35 151 47 234 3 22 7 51 10 65 29 176 26 570 -6
765 -18 113 -21 130 -41 215 -11 47 -22 92 -24 100 -2 8 -23 76 -48 150 -93
281 -216 530 -389 787 -37 57 -68 104 -68 105 0 2 49 53 108 114 110 113 217
255 273 360 31 57 76 169 85 209 37 162 18 394 -47 590 -83 249 -218 419 -407
514 -144 73 -287 96 -487 78 -115 -11 -179 -33 -265 -90 -152 -103 -305 -355
-376 -617 -9 -36 -20 -68 -24 -73 -3 -4 -59 24 -123 63 -201 121 -540 280
-702 329 -22 7 -49 16 -60 21 -82 36 -398 108 -550 126 -27 3 -79 9 -115 13
-70 9 -441 7 -456 -1 -5 -3 -40 -9 -79 -13 -38 -3 -88 -10 -110 -15 -22 -5
-56 -12 -75 -15 -19 -3 -46 -8 -60 -10 -62 -11 -287 -77 -403 -120 -223 -80
-450 -188 -654 -308 -60 -37 -116 -67 -123 -69 -7 -2 -21 25 -34 72 -131 437
-342 677 -621 705 -90 9 -163 13 -167 10z"/>
</g>
</svg>
